# xmcd CD database file
#
# Track frame offsets:
#	300
#	18116
#	53178
#
# Disc length: 954 seconds
#
# Revision: 1
# Processed by: cddbd v1.5.2PL0 Copyright (c) Steve Scherf et al.
# Submitted via: CDex 1.70beta3
#
DISCID=1b03b603
DTITLE=C.H.S - tpz GOMENNASAI e.p.
DYEAR=2011
DGENRE=東方アレンジ
TTITLE0=Luv the lUNatic? (Straight ReMix)
TTITLE1=Don't Stop This! (Original Mix)
TTITLE2=Forgotten Field (tpz FunFun Remix)
EXTD=YEAR: 2011
EXTT0=
EXTT1=
EXTT2=
PLAYORDER=
